# xmcd
# Track frame offsets:
# 150
# 15942
# 26917
# 39867
# 50592
# 62252
# 79327
# 87900
# 103280
# 113452
#
# Disc length: 1689 seconds
# Revision: 0
# Processed by: cddbd v1.4PL0 Copyright (c) Steve Scherf et al.
# Submitted via: VisiTrax 2.9.5.180 - For more info visit www.synapsa.com
#
DISCID=6f06970a
DTITLE=Lloyd Green - Moody River
DYEAR=1993
DGENRE=
TTITLE0=Moody River
TTITLE1=Robin
TTITLE2=Running bear
TTITLE3=Bare back
TTITLE4=Tell ya what
TTITLE5=Moon River
TTITLE6=Orbit
TTITLE7=Ruby
TTITLE8=Three picks
TTITLE9=Steel blue
EXTD=
EXTT0=
EXTT1=
EXTT2=
EXTT3=
EXTT4=
EXTT5=
EXTT6=
EXTT7=
EXTT8=
EXTT9=
PLAYORDER=
